<svg width="26" height="24" viewBox="0 0 26 24" fill="none" xmlns="http://www.w3.org/2000/svg">
<path d="M11.8381 0.905493C11.2653 1.403 8.95781 3.40499 6.71328 5.35325C4.46672 7.29952 2.31563 9.16818 1.92969 9.50251C1.54375 9.83684 0.995313 10.3125 0.710938 10.5572C0.426563 10.804 0.150313 11.0448 0.0975 11.0945L0 11.1841L0.670313 11.9204C1.03797 12.3244 1.35281 12.6547 1.36703 12.6547C1.38328 12.6528 2.59188 11.6179 4.05438 10.3542C11.7284 3.7234 12.9675 2.65674 12.9817 2.66072C12.9898 2.6647 13.9364 3.48261 15.0861 4.47962C16.2338 5.47664 18.8277 7.72539 20.8467 9.47863C22.8658 11.2319 24.5273 12.6667 24.5375 12.6667C24.5477 12.6667 24.5619 12.6567 24.568 12.6468C24.5781 12.6309 24.5903 12.6329 24.6106 12.6488C24.6492 12.6786 24.5903 12.7383 25.2992 11.9503C25.61 11.606 25.8944 11.2916 25.933 11.2518L26.002 11.1801L24.2998 9.70947C23.3634 8.89952 21.1636 6.99704 19.4086 5.48261C17.6556 3.96619 15.5106 2.11345 14.6413 1.3632L13.065 2.00272e-05H12.9736H12.8822L11.8381 0.905493Z" fill="#F5F3FF"/>
<path d="M11.5923 5.48063C10.853 6.12143 8.80953 7.89456 7.0525 9.41894L3.85938 12.1911L3.86344 17.9065L3.86953 23.6219L3.91422 23.7035C3.93859 23.7493 3.9975 23.8189 4.04422 23.8568C4.21281 24 3.99547 23.9901 7.215 23.9901H10.1156L10.1197 21.4568C10.1258 18.9373 10.1258 18.9254 10.1684 18.8359C10.2213 18.7204 10.3228 18.6209 10.4406 18.5692C10.532 18.5274 10.5463 18.5274 12.9269 18.5214C15.5756 18.5155 15.4619 18.5115 15.6122 18.6408C15.7178 18.7324 15.7767 18.8339 15.8011 18.9652C15.8173 19.0448 15.8234 19.8687 15.8234 21.5364V23.9901L18.8378 23.9861L21.8542 23.9801L21.9152 23.9224C21.9497 23.8906 22.0066 23.7971 22.0431 23.7135L22.1102 23.5622L22.1142 17.8707L22.1183 12.1791L17.5683 8.24879C14.9886 6.01994 13 4.31645 12.9777 4.31645C12.9513 4.31446 12.4759 4.71446 11.5923 5.48063Z" fill="#F5F3FF"/>
</svg>
