<svg width="34" height="35" viewBox="0 0 34 35" fill="none" xmlns="http://www.w3.org/2000/svg">
<g clip-path="url(#clip0_150_12)">
<path d="M16.7519 0.0519528C16.6209 0.101171 16.515 0.164062 16.3506 0.300781C16.3227 0.322656 16.2614 0.41289 16.2168 0.497656L16.136 0.653515V3.18008C16.136 5.67656 16.136 5.70664 16.1945 5.82148C16.3422 6.12227 16.6794 6.34375 16.986 6.34375C17.4263 6.34375 17.7747 6.05664 17.8862 5.59727C17.9335 5.41406 17.9335 0.957031 17.8889 0.773828C17.8081 0.448437 17.6381 0.224218 17.3789 0.101171C17.1671 -4.76837e-07 16.947 -0.0164065 16.7519 0.0519528Z" fill="#9178AD"/>
<path d="M6.84172 3.21563C6.66057 3.26211 6.36517 3.48633 6.28435 3.63672C6.2091 3.78164 6.15894 3.95117 6.15894 4.07422C6.15894 4.2 6.23697 4.44883 6.30385 4.53906C6.32336 4.56367 6.40976 4.68125 6.49336 4.79883C6.70517 5.09141 6.75533 5.15977 7.93697 6.74844C8.49156 7.49492 8.74517 7.83672 8.93746 8.10742C9.07959 8.3043 9.18271 8.41641 9.28582 8.48477C9.4391 8.58867 9.65648 8.66797 9.79025 8.66797C10.0104 8.66797 10.3532 8.4957 10.5009 8.3125C10.7016 8.06094 10.7461 7.68359 10.6096 7.41562C10.5678 7.33359 10.4758 7.19414 10.4034 7.10117C10.2027 6.84141 10.1442 6.76484 9.89894 6.42578C9.77074 6.25352 9.64533 6.08125 9.61467 6.04297C9.50599 5.90078 8.59467 4.67031 8.24074 4.18359C7.75582 3.51914 7.64713 3.39336 7.47156 3.30039C7.35451 3.2375 7.28205 3.21836 7.11205 3.21289C6.995 3.20742 6.87238 3.20742 6.84172 3.21563Z" fill="#9178AD"/>
<path d="M26.6844 3.21836C26.5116 3.26484 26.3221 3.43711 26.0601 3.78437C25.8065 4.12343 25.4414 4.61289 25.3188 4.78515C25.2881 4.8289 25.1321 5.03945 24.9704 5.25547C24.8088 5.46875 24.6555 5.67656 24.6304 5.71484C24.6026 5.75312 24.5357 5.84609 24.4772 5.92265C24.4186 6.00195 24.2263 6.25898 24.0535 6.49687C23.878 6.7375 23.6717 7.01093 23.5937 7.10937C23.3958 7.3664 23.3262 7.5332 23.3262 7.76562C23.3262 7.87226 23.3373 7.9789 23.3513 8.00625C23.3652 8.03086 23.3931 8.08828 23.4126 8.13203C23.4349 8.17578 23.5101 8.27695 23.5826 8.35351C23.8724 8.66797 24.3211 8.71992 24.6973 8.49023C24.8199 8.41367 24.9035 8.32617 25.0986 8.0582C25.4721 7.55234 26.2998 6.43125 26.8126 5.74218C27.0634 5.40312 27.2919 5.09687 27.317 5.05859C27.3449 5.02031 27.4368 4.89726 27.5204 4.78515C27.7517 4.47617 27.8409 4.27656 27.8409 4.06328C27.8409 3.74883 27.6626 3.45898 27.3672 3.28672C27.2613 3.22656 27.2083 3.21289 26.9909 3.20742C26.8544 3.20468 26.715 3.21015 26.6844 3.21836Z" fill="#9178AD"/>
<path d="M16.122 8.36719C15.7235 8.40273 15.3724 8.44922 15.2442 8.4875C15.1745 8.50937 15.0574 8.53398 14.9794 8.54492C14.7258 8.57773 13.9204 8.81836 13.5581 8.97148C13.5274 8.98242 13.4215 9.02617 13.3212 9.06718C11.7884 9.67969 10.2055 10.9648 9.24958 12.373C9.08237 12.6191 8.83433 13.0129 8.83433 13.032C8.83433 13.0402 8.78696 13.1277 8.72843 13.2289C8.61974 13.4148 8.39958 13.8879 8.2686 14.2187C8.14319 14.5332 7.94253 15.1512 7.94253 15.2223C7.94253 15.2469 7.93138 15.3043 7.91745 15.3508C7.85056 15.5613 7.82548 15.668 7.8004 15.8457C7.78647 15.9496 7.76138 16.1164 7.74466 16.2148C7.62483 16.9969 7.62483 18.0031 7.74466 18.7852C7.76138 18.8836 7.78647 19.0477 7.8004 19.1543C7.82548 19.332 7.85056 19.4387 7.91745 19.6492C7.93138 19.6957 7.94253 19.7531 7.94253 19.7777C7.94253 19.8488 8.14319 20.4641 8.2686 20.7812C8.41073 21.134 8.4804 21.2926 8.66991 21.659C8.85663 22.0309 8.92351 22.1402 9.22171 22.5859C9.73171 23.3488 10.5399 24.1992 11.284 24.757C11.6993 25.066 11.8079 25.1398 12.2204 25.3832C12.8474 25.7496 13.4661 26.0258 14.1155 26.2309C14.5976 26.384 14.723 26.4141 14.9571 26.4523C15.077 26.4715 15.1996 26.4988 15.2302 26.5152C15.2609 26.5316 15.3752 26.5535 15.4811 26.5645C15.5897 26.5727 15.7458 26.5918 15.8294 26.6055C15.913 26.6191 16.2279 26.6437 16.5261 26.6602C16.9693 26.6848 17.1699 26.682 17.627 26.6492C18.3432 26.5945 18.6274 26.5617 18.7835 26.5125C18.8532 26.4906 18.973 26.466 19.0483 26.4551C19.3325 26.4168 20.1407 26.1707 20.5309 26.0012C20.5978 25.9711 20.6563 25.9492 20.6619 25.9492C20.7065 25.9492 21.5258 25.5418 21.7655 25.4023C23.2063 24.5547 24.4911 23.2422 25.2352 21.8613C25.2937 21.7547 25.355 21.6398 25.3773 21.6016C25.4275 21.5113 25.5752 21.1859 25.6448 21.0137C25.6755 20.9371 25.7173 20.8387 25.7368 20.7949C25.7925 20.6773 25.8873 20.4066 25.9319 20.248C25.9542 20.1715 25.9876 20.0566 26.0099 19.9883C26.0935 19.7395 26.166 19.3977 26.2552 18.8535C26.3276 18.3996 26.3443 18.1398 26.3443 17.5C26.3443 16.8602 26.3276 16.6004 26.2552 16.1465C26.2384 16.0562 26.2106 15.8785 26.1911 15.75C26.1688 15.6215 26.1465 15.5039 26.1353 15.4902C26.127 15.4738 26.0991 15.3645 26.074 15.2441C26.0489 15.1238 26.0127 14.9816 25.9904 14.9297C25.9709 14.8777 25.9124 14.7109 25.865 14.5605C25.8148 14.4102 25.7591 14.2488 25.7368 14.2051C25.7173 14.1586 25.6588 14.0246 25.6114 13.9043C25.5612 13.784 25.433 13.5187 25.3271 13.3164C24.282 11.3203 22.4845 9.73437 20.3581 8.9332C19.9958 8.79648 19.5806 8.66797 19.5081 8.66797C19.483 8.66797 19.4524 8.65703 19.4384 8.64336C19.4217 8.62695 19.2991 8.59687 19.1597 8.57226C19.0232 8.54765 18.8476 8.50937 18.7696 8.4875C18.6274 8.44922 18.307 8.40547 17.8499 8.36719C17.5489 8.33984 16.4342 8.34258 16.122 8.36719Z" fill="#9178AD"/>
<path d="M32.9549 11.4953C32.941 11.5008 32.8713 11.5199 32.8016 11.5391C32.6595 11.5773 32.5369 11.6156 32.4533 11.6484C32.3947 11.6703 32.0575 11.777 31.7984 11.8508C31.7147 11.8754 31.62 11.9082 31.5893 11.9219C31.5587 11.9328 31.4221 11.9793 31.2828 12.0176C31.1462 12.0586 31.0069 12.1023 30.9762 12.116C30.9456 12.1297 30.8146 12.1707 30.6836 12.2117C30.5526 12.25 30.1457 12.3812 29.7806 12.4988C29.4128 12.6191 29.0923 12.7148 29.0672 12.7148C29.0421 12.7148 29.0115 12.7258 28.9975 12.7367C28.9808 12.7504 28.8192 12.8078 28.6352 12.8652C28.1364 13.0238 27.9497 13.1715 27.841 13.4996C27.7574 13.7512 27.7657 13.8715 27.8911 14.1723C27.9469 14.3035 28.167 14.5059 28.3343 14.577C28.5767 14.6809 28.7857 14.6617 29.332 14.484C29.5939 14.402 29.9562 14.2871 30.1402 14.2297C30.3241 14.175 30.4885 14.1176 30.5025 14.1094C30.5192 14.0984 30.5749 14.0793 30.6279 14.0711C30.6808 14.0602 30.7895 14.0273 30.8647 14C30.9874 13.9562 31.8931 13.6664 32.1606 13.5871C32.2136 13.5707 32.2833 13.5488 32.3139 13.5352C32.417 13.4887 32.6372 13.4258 32.6846 13.4258C32.7125 13.4258 32.7459 13.4148 32.7598 13.4039C32.7766 13.3902 32.9521 13.3273 33.1528 13.2645C33.5959 13.1223 33.7436 13.0238 33.8941 12.7695C33.9944 12.6027 34 12.5781 34 12.3566C34 12.1379 33.9944 12.1133 33.9025 11.9602C33.7241 11.6676 33.4844 11.5172 33.1667 11.4953C33.0664 11.4898 32.9716 11.4898 32.9549 11.4953Z" fill="#9178AD"/>
<path d="M0.607561 11.5637C0.273135 11.6922 0.0251021 12.0285 0.0167414 12.3594C0.0111676 12.6301 0.172807 12.9418 0.395758 13.0895C0.515594 13.1687 0.883463 13.3164 0.964282 13.3164C0.986577 13.3164 1.05904 13.341 1.12035 13.3711C1.18445 13.4012 1.25691 13.4258 1.2792 13.4258C1.30428 13.4285 1.42969 13.4641 1.56068 13.5105C1.69166 13.557 1.88674 13.6172 1.99264 13.6473C2.17936 13.6992 2.29084 13.7348 2.41068 13.7812C2.44133 13.7922 2.67264 13.866 2.92625 13.9453C3.17986 14.0246 3.41117 14.0984 3.44182 14.1094C3.53658 14.1477 3.81805 14.2379 4.16641 14.3418C4.35035 14.3965 4.58166 14.4703 4.68199 14.5059C5.04428 14.6344 5.18363 14.6645 5.40379 14.6508C5.66854 14.6371 5.84133 14.5578 6.00297 14.3801C6.32904 14.0219 6.31789 13.5242 5.97789 13.1934C5.81625 13.0348 5.73543 12.9937 5.39264 12.8898C5.25609 12.8488 5.13068 12.8051 5.11395 12.7914C5.10002 12.7805 5.06658 12.7695 5.03871 12.7695C5.01084 12.7695 4.96625 12.7586 4.93838 12.7422C4.9133 12.7285 4.81576 12.6984 4.72379 12.6738C4.63182 12.6492 4.49527 12.6082 4.41723 12.5809C4.34199 12.5508 4.17199 12.4961 4.041 12.4578C3.91002 12.4168 3.77904 12.373 3.74838 12.3621C3.71773 12.3484 3.58117 12.3047 3.44182 12.2609C3.30527 12.2199 2.95412 12.1105 2.6615 12.0176C2.37166 11.9246 1.92576 11.7852 1.67215 11.7059C1.41854 11.6266 1.18445 11.55 1.14822 11.5363C1.04232 11.4953 0.746905 11.5117 0.607561 11.5637Z" fill="#9178AD"/>
<path d="M28.4402 20.3684C28.2479 20.4176 27.9915 20.6254 27.9023 20.8031C27.8326 20.9398 27.7741 21.1996 27.7936 21.2762C27.8549 21.5277 27.88 21.5934 27.9497 21.6945C28.0333 21.8121 28.1949 21.9488 28.3147 22.0035C28.3538 22.0199 28.4903 22.0664 28.6213 22.1047C28.7523 22.1457 28.9223 22.2004 28.9975 22.2305C29.0756 22.2578 29.2121 22.3016 29.3041 22.3262C29.3961 22.3508 29.4964 22.3836 29.527 22.3973C29.5577 22.4082 29.6524 22.441 29.7361 22.4656C29.8197 22.4902 30.1652 22.5996 30.5024 22.709C30.8397 22.8184 31.3608 22.9824 31.659 23.0781C31.9572 23.1711 32.3697 23.3023 32.5759 23.368C33.0469 23.5184 33.2336 23.5293 33.4844 23.409C33.6656 23.3242 33.8216 23.1848 33.9052 23.0371C33.9331 22.9852 33.9665 22.9414 33.9777 22.9414C33.9916 22.9414 34 22.8102 34 22.6461V22.3535L33.8885 22.184C33.7492 21.9652 33.5736 21.8422 33.2754 21.7492C33.1444 21.7082 32.9772 21.6535 32.8992 21.6289C32.8239 21.6016 32.5536 21.5168 32.3 21.4375C31.6952 21.2488 31.6367 21.2324 31.5057 21.1832C31.4444 21.1586 31.319 21.1203 31.227 21.0957C31.1351 21.0711 31.0347 21.0383 31.0041 21.0246C30.9734 21.0137 30.8787 20.9809 30.7951 20.9562C30.7115 20.9316 30.4802 20.8578 30.2795 20.7922C30.0816 20.7293 29.7723 20.6309 29.5967 20.5762C29.4211 20.5242 29.2511 20.4695 29.2205 20.4559C29.0477 20.3875 28.9474 20.3656 28.7467 20.3574C28.6241 20.352 28.4875 20.3547 28.4402 20.3684Z" fill="#9178AD"/>
<path d="M4.68193 20.5242C4.44505 20.6035 4.1998 20.6801 4.13849 20.6965C4.07718 20.7102 3.90161 20.7648 3.74833 20.8168C3.59505 20.8687 3.39997 20.9316 3.31636 20.9562C3.23275 20.9809 3.138 21.0137 3.10734 21.0273C3.07669 21.0383 2.80636 21.1258 2.50816 21.2187C1.91456 21.4047 1.82538 21.432 1.74177 21.4648C1.71111 21.4758 1.61079 21.5086 1.51882 21.5332C1.42685 21.5578 1.2903 21.6016 1.21226 21.6289C1.13702 21.6562 0.967017 21.7137 0.836033 21.7547C0.501607 21.8586 0.429148 21.8996 0.289803 22.0473C-0.0613442 22.4137 -0.0585573 22.9086 0.29259 23.2586C0.473738 23.4336 0.640951 23.5019 0.905705 23.5019C1.12308 23.5019 1.22898 23.4801 1.51882 23.3789C1.59685 23.3516 1.95915 23.234 2.32702 23.1191C2.69489 23.0043 3.05718 22.8867 3.13243 22.8566C3.20767 22.8293 3.28292 22.8047 3.29964 22.8047C3.33587 22.8047 3.74833 22.6789 3.83193 22.6406C3.86259 22.6269 4.13292 22.5394 4.43111 22.4465C5.76325 22.0309 5.76603 22.0309 5.93046 21.8887C6.13111 21.7137 6.25095 21.4676 6.25374 21.2297C6.25374 20.9152 6.03915 20.5898 5.73259 20.4394C5.61275 20.382 5.55423 20.3711 5.35357 20.3738C5.14177 20.3766 5.06374 20.393 4.68193 20.5242Z" fill="#9178AD"/>
<path d="M24.0257 26.3758C23.8529 26.4223 23.7693 26.4687 23.6244 26.6027C23.5101 26.7066 23.3819 26.9227 23.3819 27.0129C23.3819 27.043 23.3708 27.0758 23.354 27.084C23.3401 27.0922 23.3262 27.1441 23.3262 27.1988C23.3262 27.4121 23.4376 27.6445 23.7135 28.0082C23.8195 28.1477 24.126 28.5605 24.3963 28.9297C25.0903 29.8676 25.2714 30.1137 25.4303 30.3269C25.5083 30.4309 25.7257 30.7262 25.918 30.9859C26.4558 31.716 26.545 31.7844 26.9658 31.7844C27.1776 31.7871 27.2362 31.7762 27.3476 31.7215C27.5232 31.634 27.7211 31.4398 27.7824 31.3004C27.8855 31.0625 27.9078 30.9312 27.8688 30.8082C27.7991 30.5785 27.774 30.5266 27.6208 30.316C27.5344 30.1957 27.4145 30.0316 27.3532 29.9469C27.2919 29.8594 27.1526 29.6734 27.0439 29.5312C26.8544 29.2797 26.4976 28.7984 26.3722 28.6207C26.2803 28.4894 25.4358 27.3519 25.3049 27.1797C25.2408 27.0977 25.1237 26.9363 25.0401 26.8242C24.8673 26.5836 24.6973 26.4551 24.4604 26.384C24.2598 26.3238 24.2263 26.3238 24.0257 26.3758Z" fill="#9178AD"/>
<path d="M9.53955 26.4168C9.4448 26.4496 9.3166 26.518 9.25529 26.5672C9.16333 26.6465 8.86513 27.0266 8.51677 27.516C8.47218 27.5789 8.35234 27.7402 8.24923 27.877C8.1489 28.0109 7.98447 28.2324 7.88415 28.3691C7.19857 29.2934 7.02578 29.5258 6.93382 29.6543C6.87529 29.7363 6.71365 29.9523 6.57431 30.1383C6.24824 30.5703 6.20644 30.6578 6.20644 30.9422C6.20365 31.1281 6.2148 31.1855 6.2789 31.3113C6.37087 31.4918 6.48234 31.6121 6.65234 31.7105C6.76382 31.7734 6.82234 31.7871 7.04251 31.7953C7.27939 31.8062 7.31562 31.8008 7.4466 31.7352C7.52742 31.6969 7.62496 31.6367 7.66398 31.6012C7.74759 31.5273 8.21021 30.923 8.70906 30.2285C8.75644 30.1656 8.84841 30.0371 8.91808 29.9441C8.98775 29.8512 9.16054 29.6187 9.30267 29.4273C9.4448 29.2359 9.65103 28.957 9.76251 28.8066C10.7741 27.4477 10.6878 27.5953 10.6878 27.259C10.6878 27.0348 10.6794 26.9801 10.6181 26.8652C10.4118 26.4687 9.95201 26.2773 9.53955 26.4168Z" fill="#9178AD"/>
<path d="M16.7631 28.7027C16.5875 28.7629 16.4036 28.8996 16.3088 29.0363C16.1277 29.2988 16.136 29.1676 16.136 31.809C16.136 33.9828 16.1416 34.2234 16.1834 34.352C16.267 34.6117 16.4175 34.7785 16.6934 34.9207C16.8718 35.0109 17.1839 35.0137 17.3678 34.9234C17.5769 34.8195 17.7413 34.6609 17.836 34.4668L17.9197 34.2945V31.8309V29.3699L17.85 29.2113C17.7218 28.927 17.5992 28.8148 17.2982 28.7082C17.131 28.648 16.9247 28.6453 16.7631 28.7027Z" fill="#9178AD"/>
</g>
<defs>
<clipPath id="clip0_150_12">
<rect width="34" height="35" fill="white"/>
</clipPath>
</defs>
</svg>
